<svg width="500" height="512" viewBox="0 0 500 512" fill="none" xmlns="http://www.w3.org/2000/svg">
<g clip-path="url(#clip0_5204_69905)">
<path d="M493.268 255.951C493.268 121.463 384.244 12.439 249.756 12.439C115.268 12.439 6.2439 121.463 6.2439 255.951C6.2439 390.439 115.268 499.463 249.756 499.463C384.244 499.463 493.268 390.439 493.268 255.951Z" stroke="black" stroke-width="12.4878"/>
<path d="M374.337 187.313C356.938 187.312 340.252 180.4 327.949 168.097C315.646 155.793 308.734 139.106 308.735 121.707H261.863V305.245C261.854 313.614 259.212 321.766 254.312 328.549C249.41 335.331 242.498 340.399 234.556 343.034C226.614 345.668 218.043 345.737 210.06 343.23C202.078 340.721 195.086 335.764 190.077 329.061C185.068 322.357 182.296 314.248 182.153 305.881C182.011 297.514 184.506 289.315 189.284 282.445C194.062 275.576 200.881 270.384 208.775 267.606C216.669 264.829 225.235 264.605 233.262 266.969V221.406C216.204 219.106 198.848 222.064 183.515 229.888C168.182 237.71 155.599 250.024 147.449 265.187C139.299 280.348 135.967 297.637 137.902 314.741C139.835 331.846 146.94 347.954 158.269 360.914C169.598 373.873 184.612 383.069 201.305 387.272C217.997 391.475 235.575 390.486 251.691 384.436C267.806 378.385 281.693 367.562 291.495 353.412C301.297 339.262 306.549 322.459 306.551 305.245L307.918 212.472C327.177 226.61 350.452 234.216 374.342 234.181L374.337 187.313Z" fill="black"/>
</g>
<defs>
<clipPath id="clip0_5204_69905">
<rect width="499.512" height="512" fill="white"/>
</clipPath>
</defs>
</svg>
